<?xml version="1.0" encoding="UTF-8" standalone="no"?>
<!-- Created with Inkscape (http://www.inkscape.org/) -->

<svg
   width="64"
   height="64"
   viewBox="0 0 16.933333 16.933333"
   version="1.1"
   id="svg1"
   inkscape:version="1.4 (86a8ad7, 2024-10-11)"
   sodipodi:docname="poniescript-source.svg"
   xmlns:inkscape="http://www.inkscape.org/namespaces/inkscape"
   xmlns:sodipodi="http://sodipodi.sourceforge.net/DTD/sodipodi-0.dtd"
   xmlns="http://www.w3.org/2000/svg"
   xmlns:svg="http://www.w3.org/2000/svg">
  <sodipodi:namedview
     id="namedview1"
     pagecolor="#505050"
     bordercolor="#eeeeee"
     borderopacity="1"
     inkscape:showpageshadow="0"
     inkscape:pageopacity="0"
     inkscape:pagecheckerboard="0"
     inkscape:deskcolor="#505050"
     inkscape:document-units="px"
     inkscape:zoom="8.8016274"
     inkscape:cx="3.1244222"
     inkscape:cy="49.706717"
     inkscape:window-width="2560"
     inkscape:window-height="1494"
     inkscape:window-x="-11"
     inkscape:window-y="-11"
     inkscape:window-maximized="1"
     inkscape:current-layer="layer2" />
  <defs
     id="defs1" />
  <g
     inkscape:groupmode="layer"
     id="layer2"
     inkscape:label="hair">
    <path
       style="fill:#a7a7a7;fill-opacity:1;stroke:#a7a7a7;stroke-width:0.617673;stroke-linecap:round;stroke-miterlimit:12.9;stroke-dasharray:none;stroke-opacity:1"
       d="M 5.4994213,3.4869814 C 7.3515492,0.51922365 10.197916,1.9640328 10.590675,3.1201312 9.5671206,3.1461109 8.8091394,3.7717181 8.1069335,4.3952318 8.2576695,4.5466142 8.1076703,4.3719638 8.3091844,4.5359536 9.8042966,4.0933374 11.598897,4.0289602 13.304284,6.4065681 12.435453,6.432548 9.9955854,6.5754363 9.9717816,6.8871931"
       id="path8"
       sodipodi:nodetypes="cccccc" />
    <path
       style="fill:#a7a7a7;fill-opacity:1;stroke:#a7a7a7;stroke-width:0.617673;stroke-linecap:round;stroke-miterlimit:12.9;stroke-dasharray:none;stroke-opacity:1"
       d="M 5.0852438,2.5418252 C 3.4694025,2.3581207 2.0218781,4.4890928 2.3585117,6.3445082 2.6278186,5.4627265 2.9476204,5.2422812 2.9476204,5.2422812 2.8634621,6.0689514 2.8015607,8.2390515 2.6002813,9.7417359 c 0,0 1.0869422,-1.4652444 1.2215955,-1.9979874 C 3.7377185,8.3683438 2.3144931,12.841567 2.2976614,13.77846 2.4659782,13.613126 3.5695468,12.503066 3.7546952,10.978319"
       id="path9"
       sodipodi:nodetypes="ccccccc" />
  </g>
  <g
     inkscape:label="Layer 1"
     inkscape:groupmode="layer"
     id="layer1">
    <path
       style="fill:#ffffff;fill-opacity:1;stroke:none;stroke-width:0.617802;stroke-linecap:butt;stroke-miterlimit:12.9;stroke-dasharray:none;stroke-opacity:1"
       d="M 8.0970737,15.613338 C 8.1457427,15.403779 8.0810103,14.05839 7.6866369,12.277988 L 11.828462,13.356148 14.797507,9.463621 10.636701,7.9843054 9.2293345,4.5235658 6.1851474,3.9861488 3.5007937,5.6286398 c 0.4125398,2.6853532 0.21071,6.5309452 -0.2653618,7.7000342"
       id="path3"
       sodipodi:nodetypes="ccccccccc" />
    <path
       style="fill:#ffffff;fill-opacity:1;stroke:none;stroke-width:0.617802;stroke-linecap:round;stroke-miterlimit:12.9;stroke-dasharray:none;stroke-opacity:1"
       d="M 3.6804212,6.851005 C 2.5543674,4.0064286 4.880707,1.242283 6.1387912,0.77847432 7.4876251,2.0003657 6.0968993,6.4720278 5.61253,6.6286893"
       id="path4"
       sodipodi:nodetypes="ccc" />
    <path
       style="fill:#ffffff;fill-opacity:1;stroke:#ffffff;stroke-width:0.617673;stroke-linecap:round;stroke-miterlimit:12.9;stroke-dasharray:none;stroke-opacity:1"
       d="M 9.3649344,5.5201968 C 9.6386751,5.3123589 12.785885,3.4365038 12.785885,3.4365038 L 9.7933983,6.6503155"
       id="path5"
       sodipodi:nodetypes="ccc" />
    <ellipse
       style="fill:none;fill-opacity:1;stroke:#ffffff;stroke-width:0.617673;stroke-linecap:round;stroke-miterlimit:12.9;stroke-dasharray:none;stroke-opacity:1"
       id="path6"
       cx="8.1991043"
       cy="8.4479237"
       rx="0.82475233"
       ry="0.90933716" />
    <ellipse
       style="fill:#000000;fill-opacity:1;stroke:none;stroke-width:0.617673;stroke-linecap:round;stroke-miterlimit:12.9;stroke-dasharray:none;stroke-opacity:1"
       id="path7"
       cx="8.3674212"
       cy="8.3468876"
       rx="0.82475233"
       ry="0.89096677" />
    <path
       style="fill:#ececec;fill-opacity:1;stroke:none;stroke-width:0.617802;stroke-linecap:round;stroke-miterlimit:12.9;stroke-dasharray:none;stroke-opacity:1"
       d="M 4.0732286,6.7336032 C 3.2367253,4.7418594 4.4759119,2.1258884 5.8017206,1.7134615 6.3029164,2.9117989 5.5425835,6.7906506 4.914929,6.9440282"
       id="path10"
       sodipodi:nodetypes="ccc" />
  </g>
</svg>
